<mxfile host="app.diagrams.net" modified="2023-01-17T14:33:00.588Z" agent="5.0 (Windows NT 10.0; Win64; x64) AppleWebKit/537.36 (KHTML, like Gecko) Chrome/108.0.0.0 Safari/537.36" version="20.8.5" etag="cAcdM_T7EoSE4p-JWf44" type="github">
  <diagram id="-fB192dCxYrc6BMrNV2s" name="Страница 1">
    <mxGraphModel dx="2049" dy="2306" grid="1" gridSize="10" guides="1" tooltips="1" connect="1" arrows="1" fold="1" page="1" pageScale="1" pageWidth="827" pageHeight="1169" math="0" shadow="0">
      <root>
        <mxCell id="0" />
        <mxCell id="1" parent="0" />
        <mxCell id="4gGjTpzzvBJ2QWFjTk4x-5" value="" style="rounded=1;whiteSpace=wrap;html=1;" vertex="1" parent="1">
          <mxGeometry x="20" y="720" width="790" height="430" as="geometry" />
        </mxCell>
        <mxCell id="4gGjTpzzvBJ2QWFjTk4x-11" value="" style="rounded=1;whiteSpace=wrap;html=1;" vertex="1" parent="1">
          <mxGeometry x="19" y="210" width="790" height="430" as="geometry" />
        </mxCell>
        <mxCell id="4gGjTpzzvBJ2QWFjTk4x-12" value="" style="rounded=1;whiteSpace=wrap;html=1;" vertex="1" parent="1">
          <mxGeometry x="19" y="-310" width="790" height="430" as="geometry" />
        </mxCell>
      </root>
    </mxGraphModel>
  </diagram>
</mxfile>
